# xmcd
#
# Track frame offsets:
#	150
#	17221
#	33661
#	48993
#	67515
#	88842
#	110551
#	136226
#	157584
#	173949
#	191658
#	198454
#
# Disc length: 2998 seconds
#
# Revision: 1
# Processed by: cddbd v1.5.2PL0 Copyright (c) Steve Scherf et al.
# Submitted via: audiograbber 1.83.01
#
DISCID=9a0bb40c
DTITLE=Master Kong Nay and Ouch Savy - Mekong Delta Blues
DYEAR=1900
DGENRE=Khmer Blues
TTITLE0=Farewell Wishes
TTITLE1=Brown Phalla
TTITLE2=A Tale of a Giant
TTITLE3=My Life
TTITLE4=Khmer Ladies Virtues
TTITLE5=My Darling
TTITLE6=Parents Legacy
TTITLE7=Oh Dear Mother
TTITLE8=Kadeuk Breeze
TTITLE9=Ramvong
TTITLE10=Missing My Youthful Beauty
TTITLE11=The Future of Cambodia
EXTD=
EXTT0=
EXTT1=
EXTT2=
EXTT3=
EXTT4=
EXTT5=
EXTT6=
EXTT7=
EXTT8=
EXTT9=
EXTT10=
EXTT11=
PLAYORDER=
